<mxfile host="app.diagrams.net" modified="2024-04-01T08:01:53.631Z" agent="Mozilla/5.0 (Windows NT 10.0; Win64; x64; rv:124.0) Gecko/20100101 Firefox/124.0" version="23.1.2" etag="P03KZm22ry1wjGmngLEB" type="github">
  <diagram name="Page-1" id="1jHYyqnHI2joTJbVxtmS">
    <mxGraphModel>
      <root>
        <mxCell id="0" />
        <mxCell id="1" parent="0" />
      </root>
    </mxGraphModel>
  </diagram>
</mxfile>
